<?xml version="1.0" encoding="utf-8"?>
<!-- Generator: Adobe Illustrator 19.2.0, SVG Export Plug-In . SVG Version: 6.00 Build 0)  -->
<svg version="1.1" id="Layer_1" xmlns="http://www.w3.org/2000/svg" xmlns:xlink="http://www.w3.org/1999/xlink" x="0px" y="0px"
	 viewBox="0 0 2240.2 1874.3" style="enable-background:new 0 0 2240.2 1874.3;" xml:space="preserve">
<style type="text/css">
	.st0{fill:#FFFFFF;stroke:#000000;stroke-width:75;}
	.st1{fill:none;stroke:#000000;stroke-width:75;}
	.st2{fill:#FFFFFF;stroke:#000000;stroke-width:75;stroke-linecap:round;}
	.st3{fill:#FF0000;}
	.st4{fill:none;stroke:#000000;stroke-width:75;stroke-linecap:round;}
</style>
<g transform="translate(-373.642 -318.344)">
	<path class="st0" d="M870.9,1175.3c0,127-98.4,229.9-219.9,229.9s-219.9-102.9-219.9-229.9S529.6,945.3,651,945.3
		S870.9,1048.3,870.9,1175.3z M2523.9,1180.4c0,127-98.4,229.9-219.9,229.9c-121.4,0-219.9-102.9-219.9-229.9
		s98.4-229.9,219.9-229.9C2425.4,950.4,2523.9,1053.4,2523.9,1180.4z"/>
	<path class="st1" d="M2076.5,558.6c-166.2-68.2-335.5-149-462.5-60.7c-147.1,67.7-140.1,289.6-128.9,515.6"/>
	<path class="st2" d="M2390,1510.2c0,353.9-406.2,640.7-907.4,640.7s-907.4-286.8-907.4-640.7c0-353.9,406.3-640.7,907.4-640.7
		C1983.7,869.5,2390,1156.4,2390,1510.2L2390,1510.2z"/>
	<path class="st2" d="M2372.2,592.8c0,115.2-86.6,208.5-193.4,208.5c-106.8,0-193.4-93.4-193.4-208.5
		c0-115.2,86.6-208.5,193.4-208.5C2285.7,384.2,2372.2,477.6,2372.2,592.8z"/>
	<path class="st3" d="M1236.1,1381.3c0,73.3-58,132.7-129.5,132.7s-129.5-59.4-129.5-132.7c0-73.3,58-132.7,129.5-132.7
		C1178.1,1248.6,1236.1,1308,1236.1,1381.3z M1910.3,1370c0,73.3-58,132.7-129.5,132.7s-129.5-59.4-129.5-132.7
		c0-73.3,58-132.7,129.5-132.7S1910.3,1296.7,1910.3,1370z"/>
	<path class="st4" d="M1098.4,1733.9c287.8,203.3,504.7,123.1,712.7,7.6"/>
</g>
</svg>
